<?xml version="1.0" encoding="UTF-8"?>
<!DOCTYPE svg PUBLIC "-//W3C//DTD SVG 1.1//EN" "http://www.w3.org/Graphics/SVG/1.1/DTD/svg11.dtd">
<!-- Creator: CorelDRAW -->
<svg xmlns="http://www.w3.org/2000/svg" xml:space="preserve" width="63.571mm" height="60.9998mm" version="1.1" style="shape-rendering:geometricPrecision; text-rendering:geometricPrecision; image-rendering:optimizeQuality; fill-rule:evenodd; clip-rule:evenodd"
viewBox="0 0 2464.44 2364.77"
 xmlns:xlink="http://www.w3.org/1999/xlink"
 xmlns:xodm="http://www.corel.com/coreldraw/odm/2003">
 <defs>
  <style type="text/css">
   <![CDATA[
    .str0 {stroke:#12365C;stroke-width:27.35;stroke-miterlimit:10}
    .fil2 {fill:none;fill-rule:nonzero}
    .fil0 {fill:#12365C;fill-rule:nonzero}
    .fil1 {fill:white;fill-rule:nonzero}
   ]]>
  </style>
 </defs>
 <g id="Camada_x0020_1">
  <metadata id="CorelCorpID_0Corel-Layer"/>
  <path class="fil0" d="M575.07 2172.71c-130.14,-130.92 -255.55,-257.07 -383.78,-386.06 38.76,-36.05 77.42,-75.7 120.02,-110.52 35.38,-28.92 79.95,-37.2 125.2,-37.24 246.1,-0.23 492.19,-0.26 738.29,0 47.07,0.05 79.43,21.2 93.78,59.04 13.01,34.3 4.07,72.63 -22.95,97.96 -19.6,18.35 -43.26,24.7 -69.65,24.64 -125.03,-0.26 -250.05,-0.22 -375.08,0.04 -14.97,0.04 -36.62,-4.85 -36.89,18.05 -0.29,23.16 21.36,18.58 36.42,18.61 125.82,0.25 251.63,0.35 377.44,0.06 73.09,-0.15 123.76,-45.68 133.83,-118.23 1.2,-8.71 5.06,-18.37 10.72,-24.96 76.89,-89.36 153.99,-178.54 231.74,-267.16 37.01,-42.19 95.35,-46.81 135.71,-12.38 39.88,34.03 43.69,93.6 7.03,135.98 -112.85,130.44 -225.55,261.02 -339.88,390.15 -44.99,50.82 -103.27,76.85 -172.4,76.64 -118.7,-0.37 -237.39,0.67 -356.08,-0.37 -82.06,-0.72 -151.88,25.63 -208.04,86.19 -14.98,16.15 -29.79,32.46 -45.43,49.55z"/>
  <path class="fil0" d="M373.79 2364.77c-125.26,-125.87 -250.64,-251.88 -373.79,-375.65 53.49,-53.96 109.34,-110.32 164.13,-165.62 123.66,124.43 249.35,250.91 373.44,375.76 -52.38,52.96 -107.84,108.99 -163.77,165.51z"/>
  <path class="fil0" d="M1080.93 1341.02c0,121.4 -98.41,219.8 -219.8,219.8 -121.4,0 -219.82,-98.4 -219.82,-219.8 0,-121.4 98.41,-219.8 219.82,-219.8 121.39,0 219.8,98.4 219.8,219.8z"/>
  <path class="fil1" d="M869.26 1410.02l0 -47.69c9.87,3.17 17.57,6.62 23.1,10.37 5.52,3.76 8.29,9 8.29,15.7 0,13.83 -10.46,21.03 -31.39,21.62zm-12.45 -93.28c-9.46,-2.76 -16.53,-5.88 -21.17,-9.33 -4.63,-3.46 -6.96,-8.55 -6.96,-15.25 0,-14.41 9.38,-22.22 28.13,-23.4l0 47.98zm82.63 43.09c-3.16,-6.62 -7.66,-12.3 -13.47,-17.04 -5.82,-4.73 -12.94,-8.68 -21.32,-11.84 -8.4,-3.14 -17.72,-6.11 -28,-8.89l-7.4 -1.76 0 -51.25c5.73,0.6 11.25,1.74 16.59,3.42 5.32,1.67 10.22,3.54 14.65,5.62 4.45,2.08 8.3,4.11 11.56,6.07 3.26,1.97 5.49,3.65 6.66,5.03l18.07 -33.16c-8.28,-5.73 -17.91,-10.76 -28.87,-15.11 -10.96,-4.33 -22.95,-7 -35.98,-7.99l0 -29.91 -17.77 0 0 30.2c-9.48,0.79 -18.37,2.78 -26.66,5.92 -8.3,3.16 -15.45,7.51 -21.47,13.03 -6.03,5.52 -10.77,12.2 -14.22,20 -3.45,7.8 -5.17,16.63 -5.17,26.5 0,8.09 1.22,15.06 3.69,20.88 2.46,5.82 6.17,10.95 11.1,15.4 4.94,4.43 11.11,8.29 18.52,11.54 7.4,3.26 16.14,6.28 26.2,9.04 1.78,0.59 3.56,1.14 5.33,1.63 1.78,0.49 3.55,0.93 5.32,1.33l0 50.94c-7.09,-0.79 -13.96,-2.27 -20.58,-4.44 -6.61,-2.17 -12.64,-4.49 -18.05,-6.96 -5.44,-2.46 -10.08,-4.98 -13.92,-7.55 -3.86,-2.57 -6.56,-4.64 -8.15,-6.23l-18.05 35.25c10.65,7.49 22.55,13.58 35.68,18.2 13.13,4.65 26.6,7.45 40.43,8.45l0 32.86 17.77 0 0 -32.58c9.67,-0.4 18.9,-1.82 27.69,-4.29 8.78,-2.46 16.48,-6.17 23.1,-11.11 6.61,-4.92 11.84,-11.24 15.69,-18.94 3.86,-7.7 5.77,-16.98 5.77,-27.85 0,-9.67 -1.57,-17.82 -4.73,-24.42z"/>
  <polygon class="fil0" points="145.61,312.49 145.61,1.74 217.31,1.74 217.31,249.47 367.91,249.47 367.91,312.49 "/>
  <path class="fil0" d="M515.88 251.21c12.28,0 22.58,-2.48 31.01,-7.57 8.56,-5.09 15.38,-11.91 20.59,-20.34 5.33,-8.56 9.06,-18.24 11.16,-29.15 2.23,-11.04 3.35,-22.21 3.35,-33.49l0 -158.91 71.7 0 0 158.91c0,21.59 -2.73,41.68 -8.06,60.41 -5.33,18.61 -13.65,34.98 -24.93,49 -11.29,14.02 -25.56,24.93 -42.92,33 -17.37,8.06 -37.96,12.03 -61.9,12.03 -24.81,0 -46.02,-4.22 -63.52,-12.65 -17.49,-8.44 -31.63,-19.72 -42.67,-33.87 -10.92,-14.27 -18.98,-30.64 -24.07,-49.25 -5.09,-18.73 -7.57,-38.21 -7.57,-58.68l0 -158.91 71.7 0 0 158.91c0,11.91 1.12,23.32 3.47,34.11 2.36,10.79 6.2,20.47 11.41,28.9 5.33,8.44 12.03,15.13 20.34,20.1 8.31,4.96 18.61,7.44 30.89,7.44zm175.41 -96.76c0,-18.61 3.47,-37.22 10.54,-55.7 7.07,-18.48 17.24,-35.11 30.64,-49.62 13.4,-14.64 29.77,-26.42 49,-35.48 19.23,-9.06 41.19,-13.65 65.62,-13.65 29.15,0 54.46,6.33 75.92,18.86 21.46,12.53 37.46,28.9 48.01,49l-55.2 38.46c-3.47,-8.06 -7.94,-14.89 -13.4,-20.22 -5.33,-5.46 -11.29,-9.8 -17.74,-13.15 -6.33,-3.35 -12.9,-5.71 -19.6,-7.07 -6.7,-1.36 -13.27,-1.98 -19.72,-1.98 -13.77,0 -25.68,2.73 -35.98,8.31 -10.17,5.58 -18.61,12.65 -25.31,21.46 -6.7,8.81 -11.66,18.73 -14.89,29.77 -3.23,11.04 -4.84,22.33 -4.84,33.74 0,12.28 1.86,24.07 5.71,35.48 3.85,11.29 9.3,21.34 16.38,30.15 7.2,8.81 15.75,15.75 25.8,20.84 10.05,5.09 21.46,7.57 33.99,7.57 6.45,0 13.15,-0.74 19.97,-2.36 6.82,-1.61 13.4,-4.09 19.6,-7.44 6.33,-3.35 12.03,-7.82 17.24,-13.15 5.33,-5.33 9.55,-12.03 12.78,-19.97l58.68 34.61c-4.71,11.41 -11.66,21.59 -20.84,30.64 -9.18,9.06 -19.72,16.62 -31.76,22.83 -11.91,6.08 -24.56,10.79 -38.08,14.02 -13.4,3.1 -26.55,4.71 -39.33,4.71 -22.45,0 -43.17,-4.59 -62.03,-13.77 -18.73,-9.18 -34.98,-21.34 -48.5,-36.47 -13.52,-15.26 -24.07,-32.5 -31.51,-51.73 -7.44,-19.23 -11.16,-38.83 -11.16,-58.68zm319.07 158.04l0 -310.75 140.06 0c14.51,0 28.04,3.1 40.44,9.18 12.41,6.08 23.07,14.14 32.13,24.07 9.06,9.92 16.13,21.21 21.21,33.74 5.09,12.53 7.69,25.31 7.69,38.08 0,9.55 -1.12,18.86 -3.47,27.79 -2.36,8.93 -5.71,17.37 -10.05,25.18 -4.34,7.82 -9.68,14.89 -16,21.21 -6.33,6.33 -13.4,11.66 -21.21,16l68.23 115.49 -80.88 0 -59.55 -100.24 -46.89 0 0 100.24 -71.7 0zm71.7 -162.76l65.75 0c8.44,0 15.75,-3.97 21.83,-12.03 6.08,-8.06 9.18,-18.36 9.18,-30.89 0,-12.78 -3.47,-23.07 -10.54,-30.64 -6.95,-7.57 -14.51,-11.41 -22.7,-11.41l-63.52 0 0 84.98zm357.65 165.36c-23.07,0 -44.04,-4.47 -63.02,-13.52 -18.98,-9.06 -35.11,-20.97 -48.63,-35.73 -13.4,-14.76 -23.82,-31.51 -31.26,-50.49 -7.44,-18.98 -11.16,-38.46 -11.16,-58.68 0,-20.47 3.85,-40.07 11.54,-59.05 7.82,-18.98 18.61,-35.6 32.38,-50.12 13.89,-14.51 30.27,-26.05 49.25,-34.61 18.98,-8.56 39.82,-12.9 62.27,-12.9 22.95,0 43.92,4.59 62.9,13.65 18.98,9.06 35.23,20.97 48.63,35.85 13.4,14.89 23.69,31.76 31.01,50.74 7.32,18.98 11.04,38.21 11.04,57.81 0,20.47 -3.85,40.07 -11.66,59.05 -7.69,18.98 -18.36,35.6 -32.13,50.12 -13.77,14.39 -30.02,25.93 -49,34.74 -18.98,8.81 -39.7,13.15 -62.15,13.15zm-81.01 -157.55c0,12.03 1.74,23.57 5.21,34.86 3.6,11.16 8.81,21.09 15.63,29.9 6.82,8.81 15.38,15.75 25.56,21.09 10.3,5.21 21.96,7.82 35.11,7.82 13.65,0 25.56,-2.73 35.73,-8.31 10.3,-5.58 18.73,-12.78 25.43,-21.59 6.82,-8.93 11.79,-18.98 15.13,-30.27 3.35,-11.29 5.09,-22.7 5.09,-34.36 0,-12.03 -1.74,-23.57 -5.33,-34.74 -3.47,-11.29 -8.68,-21.21 -15.75,-29.77 -6.95,-8.56 -15.51,-15.51 -25.56,-20.59 -10.05,-5.09 -21.71,-7.69 -34.74,-7.69 -13.77,0 -25.68,2.73 -35.73,8.19 -10.05,5.33 -18.61,12.41 -25.43,21.21 -6.82,8.68 -11.91,18.61 -15.26,29.9 -3.35,11.29 -5.09,22.7 -5.09,34.36z"/>
  <path class="fil0" d="M137.37 616.71c-6.39,0 -12.16,-1.24 -17.18,-3.72 -5.02,-2.48 -9.24,-5.83 -12.78,-10.05 -3.54,-4.22 -6.2,-9.18 -8,-14.95 -1.8,-5.77 -2.73,-11.97 -2.73,-18.55 0,-9.37 1.74,-18.3 5.15,-26.92 3.41,-8.62 8.06,-16.19 13.89,-22.7 5.83,-6.57 12.53,-11.85 20.1,-15.75 7.63,-3.97 15.57,-5.95 23.88,-5.95 8.31,0 15.26,2.23 20.9,6.7 5.64,4.4 9.61,10.05 11.91,16.93l4.59 -21.46 24.31 0 -18.36 85.78c-0.19,0.74 -0.31,1.36 -0.37,1.92 -0.06,0.5 -0.12,0.93 -0.12,1.36 0,2.92 1.67,4.47 5.09,4.59l-4.4 20.59c-2.05,0.31 -3.91,0.56 -5.58,0.74 -1.67,0.25 -3.1,0.37 -4.28,0.37 -9.49,0 -14.2,-3.78 -14.2,-11.41 0,-2.29 0.5,-5.83 1.55,-10.48 -5.52,7.44 -12.28,13.15 -20.16,17.06 -7.88,3.91 -15.57,5.89 -23.2,5.89zm10.54 -20.53c2.92,0 5.95,-0.56 9.24,-1.74 3.29,-1.18 6.51,-2.79 9.68,-4.84 3.16,-2.05 6.02,-4.47 8.62,-7.26 2.67,-2.79 4.78,-5.77 6.33,-8.93l6.14 -30.02c-0.43,-3.47 -1.43,-6.7 -2.98,-9.68 -1.55,-3.04 -3.47,-5.64 -5.77,-7.88 -2.29,-2.29 -4.84,-4.03 -7.63,-5.27 -2.79,-1.24 -5.71,-1.86 -8.81,-1.86 -5.52,0 -10.73,1.36 -15.63,4.16 -4.9,2.79 -9.18,6.33 -12.9,10.73 -3.72,4.4 -6.7,9.37 -8.87,15.01 -2.17,5.58 -3.29,11.23 -3.29,16.93 0,4.4 0.56,8.44 1.74,12.16 1.18,3.72 2.92,6.95 5.15,9.61 2.29,2.67 5.02,4.84 8.19,6.45 3.23,1.61 6.82,2.42 10.79,2.42zm103.71 -96.08l21.65 0 -4.78 22.95c5.64,-7.75 12.9,-13.83 21.65,-18.24 8.75,-4.47 17.99,-6.7 27.6,-6.7 4.78,0 8.81,0.68 11.97,1.98 3.23,1.3 5.83,3.16 7.75,5.58 1.98,2.42 3.41,5.21 4.28,8.44 0.93,3.16 1.36,6.76 1.36,10.73 0,3.04 -0.25,6.26 -0.81,9.61 -0.5,3.35 -1.12,6.76 -1.86,10.3l-14.64 69.78 -24.07 0 13.58 -64.14c0.56,-2.79 0.99,-5.27 1.3,-7.51 0.31,-2.29 0.43,-4.4 0.43,-6.45 0,-11.23 -4.65,-16.87 -14.02,-16.87 -3.16,0 -6.51,0.68 -10.05,1.98 -3.54,1.3 -6.95,3.16 -10.3,5.58 -3.35,2.42 -6.51,5.27 -9.55,8.56 -2.98,3.29 -5.4,6.88 -7.32,10.79l-14.64 68.04 -24.07 0 24.5 -114.44zm133.92 116.61c-17.8,0 -26.67,-9.49 -26.67,-28.41 0,-5.4 0.74,-11.47 2.17,-18.17l15.07 -70.03 23.88 0 -14.02 65.19c-0.99,4.65 -1.49,9.06 -1.49,13.15 0,11.85 5.02,17.74 15.07,17.74 6.39,0 12.84,-2.11 19.35,-6.33 6.51,-4.28 12.22,-10.42 17.18,-18.42l15.13 -71.33 24.07 0 -18.17 85.97c-0.43,1.3 -0.68,2.42 -0.68,3.29 0,2.79 1.67,4.28 5.02,4.59l-4.16 20.59c-2.17,0.31 -4.09,0.56 -5.71,0.74 -1.55,0.25 -3.04,0.37 -4.34,0.37 -4.4,0 -7.82,-0.93 -10.3,-2.73 -2.48,-1.86 -3.72,-4.59 -3.72,-8.25 0,-1.18 0.12,-2.67 0.43,-4.59 0.31,-1.92 0.81,-4.84 1.55,-8.75 -6.57,8.31 -14.14,14.64 -22.76,18.92 -8.62,4.28 -17.55,6.45 -26.92,6.45zm140.24 0c-6.39,0 -12.16,-1.24 -17.18,-3.72 -5.02,-2.48 -9.24,-5.83 -12.78,-10.05 -3.54,-4.22 -6.2,-9.18 -8,-14.95 -1.8,-5.77 -2.73,-11.97 -2.73,-18.55 0,-9.37 1.74,-18.3 5.15,-26.92 3.41,-8.62 8.06,-16.19 13.89,-22.7 5.83,-6.57 12.53,-11.85 20.1,-15.75 7.63,-3.97 15.57,-5.95 23.88,-5.95 8.31,0 15.26,2.23 20.9,6.7 5.64,4.4 9.61,10.05 11.91,16.93l4.59 -21.46 24.31 0 -18.36 85.78c-0.19,0.74 -0.31,1.36 -0.37,1.92 -0.06,0.5 -0.12,0.93 -0.12,1.36 0,2.92 1.67,4.47 5.09,4.59l-4.4 20.59c-2.05,0.31 -3.91,0.56 -5.58,0.74 -1.67,0.25 -3.1,0.37 -4.28,0.37 -9.49,0 -14.2,-3.78 -14.2,-11.41 0,-2.29 0.5,-5.83 1.55,-10.48 -5.52,7.44 -12.28,13.15 -20.16,17.06 -7.88,3.91 -15.57,5.89 -23.2,5.89zm10.54 -20.53c2.92,0 5.95,-0.56 9.24,-1.74 3.29,-1.18 6.51,-2.79 9.68,-4.84 3.16,-2.05 6.02,-4.47 8.62,-7.26 2.67,-2.79 4.78,-5.77 6.33,-8.93l6.14 -30.02c-0.43,-3.47 -1.43,-6.7 -2.98,-9.68 -1.55,-3.04 -3.47,-5.64 -5.77,-7.88 -2.29,-2.29 -4.84,-4.03 -7.63,-5.27 -2.79,-1.24 -5.71,-1.86 -8.81,-1.86 -5.52,0 -10.73,1.36 -15.63,4.16 -4.9,2.79 -9.18,6.33 -12.9,10.73 -3.72,4.4 -6.7,9.37 -8.87,15.01 -2.17,5.58 -3.29,11.23 -3.29,16.93 0,4.4 0.56,8.44 1.74,12.16 1.18,3.72 2.92,6.95 5.15,9.61 2.29,2.67 5.02,4.84 8.19,6.45 3.23,1.61 6.82,2.42 10.79,2.42zm104.58 20.1c-6.7,0 -11.85,-1.61 -15.44,-4.78 -3.54,-3.23 -5.33,-7.82 -5.33,-13.83 0,-1.18 0.06,-2.36 0.19,-3.6 0.19,-1.24 0.37,-2.54 0.68,-3.85l28.66 -135.4 23.88 0 -26.73 126.66c-0.43,1.61 -0.62,3.1 -0.62,4.4 0,2.92 0.81,5.15 2.48,6.76 1.67,1.61 4.03,2.42 6.95,2.42 1.55,0 3.47,-0.31 5.64,-0.87 2.17,-0.56 4.34,-1.24 6.39,-1.98l-0.87 18.86c-3.78,1.55 -8.13,2.85 -12.96,3.78 -4.78,0.93 -9.12,1.43 -12.9,1.43z"/>
  <path class="fil0" d="M1060.29 616.28c-6.26,0 -11.54,-1.49 -15.75,-4.47 -4.22,-2.98 -6.33,-7.75 -6.33,-14.33 0,-2.48 0.31,-4.9 0.87,-7.26l15.32 -71.52 -14.64 0 4.16 -18.61 14.2 0 8.06 -37.65 24.07 0 -8.06 37.65 23.63 0 -3.97 18.61 -23.38 0 -13.58 63.89c-0.31,1.43 -0.43,2.54 -0.43,3.29 0,2.92 0.87,5.02 2.61,6.33 1.8,1.3 3.91,1.98 6.39,1.98 3.35,0 6.57,-0.56 9.61,-1.74 3.04,-1.18 5.4,-2.17 7.01,-2.85l0.87 19.04c-3.35,2.05 -7.82,3.78 -13.34,5.33 -5.52,1.55 -11.29,2.29 -17.31,2.29zm91.44 0.43c-7.26,0 -13.71,-1.24 -19.23,-3.78 -5.52,-2.54 -10.23,-6.02 -14.02,-10.3 -3.78,-4.28 -6.7,-9.3 -8.68,-15.07 -1.92,-5.77 -2.92,-11.97 -2.92,-18.55 0,-9.18 1.8,-18.05 5.46,-26.55 3.66,-8.56 8.62,-16.13 14.89,-22.64 6.26,-6.57 13.71,-11.85 22.21,-15.75 8.56,-3.97 17.74,-5.95 27.48,-5.95 7.26,0 13.71,1.3 19.35,3.85 5.64,2.54 10.36,6.02 14.2,10.3 3.91,4.28 6.82,9.37 8.75,15.2 1.98,5.83 2.98,12.03 2.98,18.61 0,9.06 -1.8,17.8 -5.46,26.3 -3.66,8.44 -8.62,15.94 -15.01,22.52 -6.33,6.51 -13.77,11.79 -22.33,15.82 -8.5,4.03 -17.74,6.02 -27.66,6.02zm4.59 -20.53c5.15,0 10.11,-1.24 15.01,-3.72 4.9,-2.48 9.24,-5.89 13.03,-10.17 3.78,-4.28 6.88,-9.3 9.18,-15.01 2.29,-5.71 3.47,-11.79 3.47,-18.17 0,-8.75 -2.23,-15.94 -6.7,-21.71 -4.4,-5.77 -10.36,-8.68 -17.8,-8.68 -5.09,0 -10.05,1.3 -14.89,3.85 -4.78,2.54 -9.12,5.95 -13.03,10.23 -3.85,4.28 -6.95,9.3 -9.3,15.01 -2.29,5.71 -3.47,11.79 -3.47,18.17 0,8.75 2.23,15.94 6.64,21.65 4.47,5.71 10.42,8.56 17.86,8.56z"/>
  <path class="fil0" d="M1260.48 616.28c-6.26,0 -11.54,-1.49 -15.75,-4.47 -4.22,-2.98 -6.33,-7.75 -6.33,-14.33 0,-2.48 0.31,-4.9 0.87,-7.26l15.32 -71.52 -14.64 0 4.16 -18.61 14.2 0 8.06 -37.65 24.07 0 -8.06 37.65 23.63 0 -3.97 18.61 -23.38 0 -13.58 63.89c-0.31,1.43 -0.43,2.54 -0.43,3.29 0,2.92 0.87,5.02 2.61,6.33 1.8,1.3 3.91,1.98 6.39,1.98 3.35,0 6.57,-0.56 9.61,-1.74 3.04,-1.18 5.4,-2.17 7.01,-2.85l0.87 19.04c-3.35,2.05 -7.82,3.78 -13.34,5.33 -5.52,1.55 -11.29,2.29 -17.31,2.29zm87.28 0.43c-6.39,0 -12.16,-1.24 -17.18,-3.72 -5.02,-2.48 -9.24,-5.83 -12.78,-10.05 -3.54,-4.22 -6.2,-9.18 -8,-14.95 -1.8,-5.77 -2.73,-11.97 -2.73,-18.55 0,-9.37 1.74,-18.3 5.15,-26.92 3.41,-8.62 8.06,-16.19 13.89,-22.7 5.83,-6.57 12.53,-11.85 20.1,-15.75 7.63,-3.97 15.57,-5.95 23.88,-5.95 8.31,0 15.26,2.23 20.9,6.7 5.64,4.4 9.61,10.05 11.91,16.93l4.59 -21.46 24.31 0 -18.36 85.78c-0.19,0.74 -0.31,1.36 -0.37,1.92 -0.06,0.5 -0.12,0.93 -0.12,1.36 0,2.92 1.67,4.47 5.09,4.59l-4.4 20.59c-2.05,0.31 -3.91,0.56 -5.58,0.74 -1.67,0.25 -3.1,0.37 -4.28,0.37 -9.49,0 -14.2,-3.78 -14.2,-11.41 0,-2.29 0.5,-5.83 1.55,-10.48 -5.52,7.44 -12.28,13.15 -20.16,17.06 -7.88,3.91 -15.57,5.89 -23.2,5.89zm10.54 -20.53c2.92,0 5.95,-0.56 9.24,-1.74 3.29,-1.18 6.51,-2.79 9.68,-4.84 3.16,-2.05 6.02,-4.47 8.62,-7.26 2.67,-2.79 4.78,-5.77 6.33,-8.93l6.14 -30.02c-0.43,-3.47 -1.43,-6.7 -2.98,-9.68 -1.55,-3.04 -3.47,-5.64 -5.77,-7.88 -2.29,-2.29 -4.84,-4.03 -7.63,-5.27 -2.79,-1.24 -5.71,-1.86 -8.81,-1.86 -5.52,0 -10.73,1.36 -15.63,4.16 -4.9,2.79 -9.18,6.33 -12.9,10.73 -3.72,4.4 -6.7,9.37 -8.87,15.01 -2.17,5.58 -3.29,11.23 -3.29,16.93 0,4.4 0.56,8.44 1.74,12.16 1.18,3.72 2.92,6.95 5.15,9.61 2.29,2.67 5.02,4.84 8.19,6.45 3.23,1.61 6.82,2.42 10.79,2.42z"/>
  <path class="fil0" d="M1462.88 616.28c-6.7,0 -11.85,-1.61 -15.44,-4.78 -3.54,-3.23 -5.33,-7.82 -5.33,-13.83 0,-1.18 0.06,-2.36 0.19,-3.6 0.19,-1.24 0.37,-2.54 0.68,-3.85l28.66 -135.4 23.88 0 -26.73 126.66c-0.43,1.61 -0.62,3.1 -0.62,4.4 0,2.92 0.81,5.15 2.48,6.76 1.67,1.61 4.03,2.42 6.95,2.42 1.55,0 3.47,-0.31 5.64,-0.87 2.17,-0.56 4.34,-1.24 6.39,-1.98l-0.87 18.86c-3.78,1.55 -8.13,2.85 -12.96,3.78 -4.78,0.93 -9.12,1.43 -12.9,1.43z"/>
  <line class="fil2 str0" x1="861.12" y1="459.21" x2="861.12" y2= "1050.23" />
  <path class="fil2 str0" d="M1365.6 1096.49l0 0c0,46.36 37.58,83.93 83.93,83.93l967.09 0"/>
  <polygon class="fil0" points="2464.44,1180.42 2392.71,1139.01 2392.71,1221.83 "/>
 </g>
</svg>
