<?xml version="1.0" encoding="UTF-8"?>
<!DOCTYPE svg PUBLIC "-//W3C//DTD SVG 1.1//EN" "http://www.w3.org/Graphics/SVG/1.1/DTD/svg11.dtd">
<!-- Creator: CorelDRAW -->
<svg xmlns="http://www.w3.org/2000/svg" xml:space="preserve" width="14.1111mm" height="13.2799mm" version="1.1" style="shape-rendering:geometricPrecision; text-rendering:geometricPrecision; image-rendering:optimizeQuality; fill-rule:evenodd; clip-rule:evenodd"
viewBox="0 0 99.19 93.35"
 xmlns:xlink="http://www.w3.org/1999/xlink"
 xmlns:xodm="http://www.corel.com/coreldraw/odm/2003">
 <defs>
  <style type="text/css">
   <![CDATA[
    .fil0 {fill:#FEFEFE;fill-rule:nonzero}
   ]]>
  </style>
 </defs>
 <g id="Camada_x0020_1">
  <metadata id="CorelCorpID_0Corel-Layer"/>
  <polygon class="fil0" points="49.59,0 -0,19 -0,26.22 49.59,26.22 99.19,26.22 99.19,19 "/>
  <polygon class="fil0" points="49.59,27.72 4.94,27.72 4.94,31.71 49.59,31.71 94.25,31.71 94.25,27.72 "/>
  <polygon class="fil0" points="49.59,79.52 4.94,79.52 4.94,83.51 49.59,83.51 94.25,83.51 94.25,79.52 "/>
  <polygon class="fil0" points="49.59,84.61 -0,84.61 -0,93.35 49.59,93.35 99.19,93.35 99.19,84.61 "/>
  <polygon class="fil0" points="21.86,54.35 21.86,36.3 23.07,35.09 25.14,35.09 25.14,32.87 17.96,32.87 10.77,32.87 10.77,35.09 12.84,35.09 14.05,36.3 14.05,54.35 14.05,54.77 14.05,74.93 12.84,76.14 10.77,76.14 10.77,78.36 17.96,78.36 25.14,78.36 25.14,76.14 23.07,76.14 21.86,74.93 21.86,54.77 "/>
  <polygon class="fil0" points="42.96,54.35 42.96,36.3 44.16,35.09 46.24,35.09 46.24,32.87 39.05,32.87 31.86,32.87 31.86,35.09 33.93,35.09 35.14,36.3 35.14,54.35 35.14,54.77 35.14,74.93 33.93,76.14 31.86,76.14 31.86,78.36 39.05,78.36 46.24,78.36 46.24,76.14 44.16,76.14 42.96,74.93 42.96,54.77 "/>
  <polygon class="fil0" points="64.05,54.35 64.05,36.3 65.25,35.09 67.33,35.09 67.33,32.87 60.14,32.87 52.95,32.87 52.95,35.09 55.03,35.09 56.23,36.3 56.23,54.35 56.23,54.77 56.23,74.93 55.03,76.14 52.95,76.14 52.95,78.36 60.14,78.36 67.33,78.36 67.33,76.14 65.25,76.14 64.05,74.93 64.05,54.77 "/>
  <polygon class="fil0" points="85.14,54.35 85.14,36.3 86.35,35.09 88.42,35.09 88.42,32.87 81.23,32.87 74.05,32.87 74.05,35.09 76.12,35.09 77.33,36.3 77.33,54.35 77.33,54.77 77.33,74.93 76.12,76.14 74.05,76.14 74.05,78.36 81.23,78.36 88.42,78.36 88.42,76.14 86.35,76.14 85.14,74.93 85.14,54.77 "/>
  <path class="fil0" d="M50.04 17.82l0 -2.58c0.54,0.17 0.95,0.36 1.25,0.56 0.3,0.2 0.45,0.49 0.45,0.85 0,0.75 -0.57,1.14 -1.7,1.17zm-0.67 -5.06c-0.51,-0.15 -0.9,-0.32 -1.15,-0.5 -0.25,-0.19 -0.38,-0.46 -0.38,-0.83 0,-0.78 0.51,-1.21 1.53,-1.27l0 2.6zm4.48 2.34c-0.17,-0.36 -0.41,-0.67 -0.73,-0.93 -0.31,-0.26 -0.7,-0.47 -1.16,-0.64 -0.46,-0.17 -0.96,-0.33 -1.52,-0.48l-0.4 -0.1 0 -2.78c0.31,0.03 0.61,0.09 0.9,0.19 0.29,0.09 0.55,0.19 0.79,0.31 0.24,0.11 0.45,0.22 0.63,0.33 0.18,0.11 0.29,0.2 0.36,0.27l0.98 -1.8c-0.45,-0.31 -0.97,-0.58 -1.56,-0.82 -0.6,-0.24 -1.24,-0.38 -1.95,-0.43l0 -1.62 -0.96 0 0 1.64c-0.51,0.04 -1,0.15 -1.45,0.32 -0.45,0.17 -0.84,0.41 -1.16,0.71 -0.33,0.3 -0.58,0.66 -0.77,1.08 -0.19,0.42 -0.28,0.9 -0.28,1.44 0,0.44 0.07,0.82 0.2,1.13 0.13,0.31 0.33,0.59 0.6,0.84 0.27,0.24 0.6,0.45 1,0.62 0.4,0.18 0.88,0.34 1.42,0.49 0.1,0.03 0.19,0.06 0.29,0.09 0.09,0.03 0.19,0.05 0.29,0.07l0 2.76c-0.38,-0.04 -0.76,-0.12 -1.12,-0.24 -0.36,-0.12 -0.68,-0.24 -0.98,-0.38 -0.3,-0.13 -0.55,-0.27 -0.75,-0.41 -0.21,-0.14 -0.36,-0.25 -0.44,-0.34l-0.98 1.91c0.58,0.41 1.22,0.74 1.93,0.99 0.71,0.25 1.44,0.4 2.19,0.46l0 1.78 0.96 0 0 -1.77c0.53,-0.02 1.02,-0.1 1.5,-0.23 0.48,-0.13 0.89,-0.33 1.25,-0.6 0.36,-0.27 0.64,-0.61 0.85,-1.03 0.21,-0.42 0.31,-0.92 0.31,-1.51 0,-0.53 -0.09,-0.97 -0.26,-1.32z"/>
 </g>
</svg>
