<?xml version="1.0" encoding="UTF-8"?>
<!DOCTYPE svg PUBLIC "-//W3C//DTD SVG 1.1//EN" "http://www.w3.org/Graphics/SVG/1.1/DTD/svg11.dtd">
<!-- Creator: CorelDRAW -->
<svg xmlns="http://www.w3.org/2000/svg" xml:space="preserve" width="14.42mm" height="14.42mm" version="1.1" style="shape-rendering:geometricPrecision; text-rendering:geometricPrecision; image-rendering:optimizeQuality; fill-rule:evenodd; clip-rule:evenodd"
viewBox="0 0 50.06 50.06"
 xmlns:xlink="http://www.w3.org/1999/xlink"
 xmlns:xodm="http://www.corel.com/coreldraw/odm/2003">
 <defs>
  <style type="text/css">
   <![CDATA[
    .fil0 {fill:#373435}
    .fil1 {fill:white;fill-rule:nonzero}
   ]]>
  </style>
 </defs>
 <g id="Camada_x0020_1">
  <metadata id="CorelCorpID_0Corel-Layer"/>
  <path class="fil0" d="M25.03 0c13.82,0 25.03,11.21 25.03,25.03 0,13.82 -11.21,25.03 -25.03,25.03 -13.82,0 -25.03,-11.21 -25.03,-25.03 0,-13.82 11.21,-25.03 25.03,-25.03zm23.83 25.03c0,6.58 -2.67,12.53 -6.98,16.85 -4.31,4.31 -10.27,6.98 -16.85,6.98 -6.58,0 -12.53,-2.67 -16.85,-6.98 -4.31,-4.31 -6.98,-10.27 -6.98,-16.85 0,-6.58 2.67,-12.54 6.98,-16.85 4.31,-4.31 10.27,-6.98 16.85,-6.98 6.58,0 12.53,2.67 16.85,6.98 4.31,4.31 6.98,10.27 6.98,16.85zm-23.01 6.9l0 -4.77c0.99,0.32 1.76,0.66 2.31,1.04 0.55,0.38 0.83,0.9 0.83,1.57 0,1.38 -1.05,2.1 -3.14,2.16zm-1.24 -9.33c-0.95,-0.28 -1.65,-0.59 -2.12,-0.93 -0.46,-0.35 -0.7,-0.85 -0.7,-1.53 0,-1.44 0.94,-2.22 2.81,-2.34l0 4.8zm8.27 4.31c-0.32,-0.66 -0.77,-1.23 -1.35,-1.7 -0.58,-0.47 -1.29,-0.87 -2.13,-1.18 -0.84,-0.32 -1.77,-0.61 -2.8,-0.89l-0.74 -0.18 0 -5.12c0.57,0.06 1.13,0.17 1.66,0.34 0.53,0.17 1.02,0.36 1.47,0.56 0.44,0.21 0.83,0.41 1.16,0.61 0.33,0.2 0.55,0.37 0.67,0.5l1.81 -3.32c-0.83,-0.57 -1.79,-1.08 -2.89,-1.51 -1.1,-0.43 -2.3,-0.7 -3.6,-0.8l0 -2.99 -1.78 0 0 3.02c-0.95,0.08 -1.84,0.28 -2.67,0.59 -0.83,0.32 -1.54,0.75 -2.15,1.3 -0.6,0.55 -1.08,1.22 -1.42,2 -0.35,0.78 -0.52,1.66 -0.52,2.65 0,0.81 0.12,1.51 0.37,2.09 0.25,0.58 0.62,1.1 1.11,1.54 0.49,0.44 1.11,0.83 1.85,1.16 0.74,0.33 1.61,0.63 2.62,0.9 0.18,0.06 0.36,0.11 0.53,0.16 0.18,0.05 0.36,0.09 0.53,0.13l0 5.1c-0.71,-0.08 -1.4,-0.23 -2.06,-0.44 -0.66,-0.22 -1.26,-0.45 -1.81,-0.7 -0.54,-0.25 -1.01,-0.5 -1.39,-0.76 -0.39,-0.26 -0.66,-0.46 -0.81,-0.62l-1.81 3.52c1.07,0.75 2.26,1.36 3.57,1.82 1.31,0.47 2.66,0.75 4.04,0.85l0 3.29 1.78 0 0 -3.26c0.97,-0.04 1.89,-0.18 2.77,-0.43 0.88,-0.25 1.65,-0.62 2.31,-1.11 0.66,-0.49 1.18,-1.13 1.57,-1.9 0.38,-0.77 0.58,-1.7 0.58,-2.78 0,-0.97 -0.16,-1.78 -0.47,-2.44zm6.41 12.37c3.65,-3.65 5.9,-8.68 5.9,-14.25 0,-5.56 -2.26,-10.6 -5.9,-14.25 -3.65,-3.65 -8.68,-5.9 -14.25,-5.9 -5.56,0 -10.6,2.26 -14.25,5.9 -3.65,3.65 -5.9,8.68 -5.9,14.25 0,5.56 2.26,10.6 5.9,14.25 3.65,3.65 8.68,5.9 14.25,5.9 5.56,0 10.6,-2.26 14.25,-5.9z"/>
  <path class="fil1" d="M48.86 25.03c0,6.58 -2.67,12.53 -6.98,16.85 -4.31,4.31 -10.27,6.98 -16.85,6.98 -6.58,0 -12.53,-2.67 -16.85,-6.98 -4.31,-4.31 -6.98,-10.27 -6.98,-16.85 0,-6.58 2.67,-12.54 6.98,-16.85 4.31,-4.31 10.27,-6.98 16.85,-6.98 6.58,0 12.53,2.67 16.85,6.98 4.31,4.31 6.98,10.27 6.98,16.85zm-23.01 6.9l0 -4.77c0.99,0.32 1.76,0.66 2.31,1.04 0.55,0.38 0.83,0.9 0.83,1.57 0,1.38 -1.05,2.1 -3.14,2.16zm-1.24 -9.33c-0.95,-0.28 -1.65,-0.59 -2.12,-0.93 -0.46,-0.35 -0.7,-0.85 -0.7,-1.53 0,-1.44 0.94,-2.22 2.81,-2.34l0 4.8zm8.27 4.31c-0.32,-0.66 -0.77,-1.23 -1.35,-1.7 -0.58,-0.47 -1.29,-0.87 -2.13,-1.18 -0.84,-0.32 -1.77,-0.61 -2.8,-0.89l-0.74 -0.18 0 -5.12c0.57,0.06 1.13,0.17 1.66,0.34 0.53,0.17 1.02,0.36 1.47,0.56 0.44,0.21 0.83,0.41 1.16,0.61 0.33,0.2 0.55,0.37 0.67,0.5l1.81 -3.32c-0.83,-0.57 -1.79,-1.08 -2.89,-1.51 -1.1,-0.43 -2.3,-0.7 -3.6,-0.8l0 -2.99 -1.78 0 0 3.02c-0.95,0.08 -1.84,0.28 -2.67,0.59 -0.83,0.32 -1.54,0.75 -2.15,1.3 -0.6,0.55 -1.08,1.22 -1.42,2 -0.35,0.78 -0.52,1.66 -0.52,2.65 0,0.81 0.12,1.51 0.37,2.09 0.25,0.58 0.62,1.1 1.11,1.54 0.49,0.44 1.11,0.83 1.85,1.16 0.74,0.33 1.61,0.63 2.62,0.9 0.18,0.06 0.36,0.11 0.53,0.16 0.18,0.05 0.36,0.09 0.53,0.13l0 5.1c-0.71,-0.08 -1.4,-0.23 -2.06,-0.44 -0.66,-0.22 -1.26,-0.45 -1.81,-0.7 -0.54,-0.25 -1.01,-0.5 -1.39,-0.76 -0.39,-0.26 -0.66,-0.46 -0.81,-0.62l-1.81 3.52c1.07,0.75 2.26,1.36 3.57,1.82 1.31,0.47 2.66,0.75 4.04,0.85l0 3.29 1.78 0 0 -3.26c0.97,-0.04 1.89,-0.18 2.77,-0.43 0.88,-0.25 1.65,-0.62 2.31,-1.11 0.66,-0.49 1.18,-1.13 1.57,-1.9 0.38,-0.77 0.58,-1.7 0.58,-2.78 0,-0.97 -0.16,-1.78 -0.47,-2.44zm6.41 12.37c3.65,-3.65 5.9,-8.68 5.9,-14.25 0,-5.56 -2.26,-10.6 -5.9,-14.25 -3.65,-3.65 -8.68,-5.9 -14.25,-5.9 -5.56,0 -10.6,2.26 -14.25,5.9 -3.65,3.65 -5.9,8.68 -5.9,14.25 0,5.56 2.26,10.6 5.9,14.25 3.65,3.65 8.68,5.9 14.25,5.9 5.56,0 10.6,-2.26 14.25,-5.9z"/>
 </g>
</svg>
