<?xml version="1.0" encoding="UTF-8"?>
<!DOCTYPE svg PUBLIC "-//W3C//DTD SVG 1.1//EN" "http://www.w3.org/Graphics/SVG/1.1/DTD/svg11.dtd">
<!-- Creator: CorelDRAW -->
<svg xmlns="http://www.w3.org/2000/svg" xml:space="preserve" width="14.1111mm" height="12.9237mm" version="1.1" style="shape-rendering:geometricPrecision; text-rendering:geometricPrecision; image-rendering:optimizeQuality; fill-rule:evenodd; clip-rule:evenodd"
viewBox="0 0 67.33 61.66"
 xmlns:xlink="http://www.w3.org/1999/xlink"
 xmlns:xodm="http://www.corel.com/coreldraw/odm/2003">
 <defs>
  
 </defs>
 <g id="Camada_x0020_1">
  <metadata id="CorelCorpID_0Corel-Layer"/>
  <polygon class="fil0" points="33.66,40.2 25.49,38.35 25.49,47.83 33.66,49.68 "/>
  <path class="fil0" fill="currentColor" d="M58.18 44.23l-7.84 4.14 0 -9.81 7.84 -4.31 0 9.97zm-17.98 14.16l-20.37 -4.68 0 -16.78 -8.72 -2.4 0 17 -6.1 -1.53 0 -21.24 18.41 -15.91 16.78 23.97 0 21.57zm4.25 -58.4l-21.85 6.54 -22.61 20.92 0 1.31 2.83 0.98 0 22.12 39.22 9.8 22.33 -11.88 0 -20.05 2.94 -1.09 0 -1.74 -22.88 -26.91z"/>
 </g>
</svg>
