<?xml version="1.0" encoding="UTF-8"?>
<!DOCTYPE svg PUBLIC "-//W3C//DTD SVG 1.1//EN" "http://www.w3.org/Graphics/SVG/1.1/DTD/svg11.dtd">
<!-- Creator: CorelDRAW -->
<svg xmlns="http://www.w3.org/2000/svg" xml:space="preserve" width="14.111mm" height="12.2204mm" version="1.1" style="shape-rendering:geometricPrecision; text-rendering:geometricPrecision; image-rendering:optimizeQuality; fill-rule:evenodd; clip-rule:evenodd"
viewBox="0 0 1708.78 1479.83"
 xmlns:xlink="http://www.w3.org/1999/xlink"
 xmlns:xodm="http://www.corel.com/coreldraw/odm/2003">
 <defs>
  <style type="text/css">
   <![CDATA[
    .fil0 {fill:#FEFEFE;fill-rule:nonzero}
   ]]>
  </style>
 </defs>
 <g id="Camada_x0020_1">
  <metadata id="CorelCorpID_0Corel-Layer"/>
  <path class="fil0" d="M1650.89 1109.03l-595.12 0c262.12,-172.63 263.07,-564.12 0.21,-737.91l594.92 0 0 737.91zm-1079.78 -162.34c-39.38,-63.39 -58.44,-132.73 -58.05,-233.34 3.58,-106.32 53.66,-215.26 165.28,-290.02 132.9,-89.03 304,-65.96 415.74,53.1 145.37,154.86 133.8,410.2 -24.95,551.3 -153.92,136.79 -386.15,99.12 -498.03,-81.04zm1065.65 -634.35c-378.8,0.73 -757.6,0.47 -1136.4,0.47 -5,0 -10.04,-0.22 -15.04,0.08 -17.6,0.94 -28.92,11.79 -29.17,27.85 -0.3,16.7 11.36,28.63 29.81,28.75 49.52,0.39 99.03,0.13 148.54,0.17l20.04 0c-130.08,92.44 -198.48,214.07 -198.39,370.69 0.12,156.39 68.7,277.89 197.11,369.13l-595.17 0 0 -739.82 67.72 0c71.2,0 142.38,0.13 213.59,-0.12 18.2,-0.08 30.76,-12.18 30.86,-28.2 0.04,-15.92 -12.61,-27.72 -30.64,-28.49 -2.22,-0.12 -4.44,-0.04 -6.66,-0.04 -89.54,0 -179.12,-0.05 -268.66,0 -41.61,0.04 -64.25,22.38 -64.25,63.65 -0.05,242.52 -0.05,485.05 0.04,727.57 0,6.62 0.27,13.45 1.84,19.77 7.22,28.75 29.27,43.4 64.56,43.4 523.4,0 1046.8,-0.21 1570.24,0.44 34.81,0.04 58.83,-11.46 72.06,-43.84l0 -767.62c-13.15,-32.43 -37.25,-43.87 -72.02,-43.84z"/>
  <path class="fil0" d="M870.6 259.51c160.45,-53.66 320.91,-107.4 481.37,-161.14 40.93,-13.71 81.85,-27.38 124.4,-41.61 2.47,7.27 4.11,11.92 5.68,16.61 17.69,52.59 35.37,105.18 53.06,157.73 1.57,4.75 2.89,9.61 4.95,14.14 6.75,14.82 21.23,21.45 35.58,16.66 14.65,-4.96 22.64,-20.3 17.35,-36.4 -19.79,-60.06 -39.99,-120.01 -60.23,-179.9 -13.64,-40.41 -41.18,-54.08 -81.86,-40.53 -97.35,32.5 -194.67,65.14 -291.99,97.78 -102.57,34.34 -205.14,68.69 -307.67,103.12 -23.29,7.81 -32.18,27.16 -20.77,44.55 8.33,12.64 20.47,15.55 40.12,8.97z"/>
  <path class="fil0" d="M839.89 1219.9c-161.02,54.12 -322.11,108.03 -483.17,161.94 -40.92,13.72 -81.85,27.39 -123.84,41.4 -2.47,-6.71 -4.44,-11.75 -6.15,-16.88 -18.62,-55.2 -37.33,-110.43 -55.74,-165.71 -4.19,-12.56 -10.9,-21.92 -24.91,-23.63 -22.26,-2.69 -37.13,16.44 -29.64,39.31 18.79,57.5 38.18,114.82 57.36,172.25 15.98,47.93 41.61,60.71 89.38,44.68 102.6,-34.39 205.26,-68.73 307.87,-103.12 94.76,-31.79 189.55,-63.39 284.04,-95.91 9.58,-3.29 20.8,-10.81 24.61,-19.35 3.34,-7.57 0,-21.02 -5.07,-28.71 -8.08,-12.13 -21.53,-10.72 -34.73,-6.27z"/>
  <path class="fil0" d="M250.1 483.39c22.17,-0.12 33.83,-9.69 34.19,-27.63 0.34,-18.42 -12.05,-29.05 -34.65,-29.18 -33.33,-0.17 -66.69,-0.17 -100.01,0 -25.33,0.13 -35.67,10.26 -35.84,35.25 -0.17,33.36 -0.12,66.69 0,100.05 0.08,22.73 10.43,35.24 28.63,35.24 18.32,-0.04 28.11,-12.17 28.19,-35.32 0.13,-25.42 0.05,-50.84 0.05,-78.35 28.41,0 53.91,0.12 79.45,-0.05z"/>
  <path class="fil0" d="M146.73 1053.36c34.98,0.34 70.02,0.3 105.05,0 20.16,-0.17 32.21,-10.93 32.51,-27.99 0.34,-17.85 -11.71,-28.58 -32.99,-28.75 -26.06,-0.22 -52.12,-0.04 -80.7,-0.04 0,-28.46 0.17,-54.47 -0.04,-80.53 -0.13,-21.36 -10.77,-33.41 -28.63,-33.19 -17.04,0.21 -27.94,12.3 -28.11,32.38 -0.3,34.98 -0.34,70.02 0,105 0.21,22.09 10.93,32.89 32.89,33.11z"/>
  <path class="fil0" d="M1457.65 483.38c26.01,0.22 52.07,0.05 80.53,0.05 0,28.53 -0.13,54.59 0.04,80.65 0.17,21.28 10.9,33.33 28.75,33.02 17.05,-0.29 27.85,-12.39 28.02,-32.5 0.3,-35.03 0.35,-70.07 -0.04,-105.05 -0.22,-22.05 -10.93,-32.73 -33.07,-32.9 -34.98,-0.34 -70.02,-0.29 -105,-0.04 -20.11,0.21 -32.16,11.07 -32.38,28.11 -0.25,17.9 11.83,28.49 33.16,28.66z"/>
  <path class="fil0" d="M1566.85 882.88c-17.86,-0.27 -28.49,11.83 -28.63,33.14 -0.21,26.06 -0.04,52.08 -0.04,80.53 -28.58,0 -54.6,-0.13 -80.66,0.08 -21.26,0.13 -33.36,10.85 -33.01,28.71 0.25,17.09 12.3,27.85 32.47,28.02 34.98,0.3 70.02,0.34 105.04,0 21.97,-0.22 32.73,-11.02 32.94,-33.07 0.35,-35.02 0.3,-70.02 0,-105.04 -0.17,-20.08 -11.06,-32.18 -28.11,-32.38z"/>
  <path class="fil0" d="M769.33 639.42c-0.64,29.05 22.17,57.07 56.48,66.6l0 -66.18 0 -64.42c-31.91,6.32 -55.84,34.52 -56.48,64z"/>
  <path class="fil0" d="M872.26 887.01l0 -104.58c21.65,6.98 38.53,14.53 50.67,22.73 12.09,8.25 18.15,19.74 18.15,34.44 0,30.32 -22.94,46.09 -68.82,47.41zm-27.29 -204.58c-20.77,-6.02 -36.23,-12.86 -46.4,-20.42 -10.21,-7.6 -15.28,-18.76 -15.28,-33.46 0,-31.61 20.59,-48.69 61.69,-51.3l0 105.17zm181.21 94.49c-6.96,-14.48 -16.78,-26.96 -29.56,-37.33 -12.78,-10.38 -28.36,-19.01 -46.78,-25.97 -18.37,-6.91 -38.82,-13.41 -61.35,-19.47l-16.23 -3.89 0 -112.36c12.56,1.28 24.69,3.8 36.35,7.48 11.71,3.67 22.43,7.81 32.16,12.34 9.75,4.53 18.16,8.97 25.33,13.33 7.14,4.31 12.01,7.99 14.62,11.02l39.6 -72.75c-18.2,-12.51 -39.3,-23.58 -63.31,-33.11 -24.05,-9.52 -50.33,-15.33 -78.91,-17.51l0 -65.57 -38.96 0 0 66.21c-20.8,1.76 -40.29,6.07 -58.44,12.98 -18.2,6.93 -33.88,16.46 -47.08,28.58 -13.24,12.13 -23.63,26.75 -31.18,43.84 -7.56,17.09 -11.36,36.49 -11.36,58.1 0,17.76 2.69,33.02 8.11,45.79 5.38,12.78 13.54,24.01 24.35,33.75 10.8,9.75 24.35,18.2 40.58,25.33 16.24,7.14 35.37,13.76 57.46,19.82 3.92,1.28 7.82,2.48 11.71,3.55 3.89,1.11 7.77,2.09 11.66,2.95l0 111.66c-15.55,-1.71 -30.59,-4.95 -45.12,-9.74 -14.52,-4.75 -27.72,-9.83 -39.6,-15.26 -11.92,-5.38 -22.09,-10.93 -30.54,-16.53 -8.42,-5.64 -14.4,-10.16 -17.86,-13.67l-39.6 77.28c23.37,16.44 49.47,29.78 78.26,39.94 28.78,10.17 58.31,16.32 88.64,18.5l0 72.11 38.96 0 0 -71.43c21.19,-0.9 41.44,-4.01 60.71,-9.43 19.27,-5.43 36.15,-13.5 50.67,-24.35 14.48,-10.81 25.97,-24.69 34.39,-41.57 8.45,-16.87 12.69,-37.2 12.69,-61.04 0,-21.19 -3.46,-39.04 -10.39,-53.57z"/>
 </g>
</svg>
