<?xml version="1.0" encoding="UTF-8"?>
<!DOCTYPE svg PUBLIC "-//W3C//DTD SVG 1.1//EN" "http://www.w3.org/Graphics/SVG/1.1/DTD/svg11.dtd">
<!-- Creator: CorelDRAW -->
<svg xmlns="http://www.w3.org/2000/svg" xml:space="preserve" width="14.111mm" height="14.1084mm" version="1.1" style="shape-rendering:geometricPrecision; text-rendering:geometricPrecision; image-rendering:optimizeQuality; fill-rule:evenodd; clip-rule:evenodd"
viewBox="0 0 186.02 185.99"
 xmlns:xlink="http://www.w3.org/1999/xlink"
 xmlns:xodm="http://www.corel.com/coreldraw/odm/2003">
 <defs>
  <style type="text/css">
   <![CDATA[
    .fil0 {fill:#FEFEFE;fill-rule:nonzero}
   ]]>
  </style>
 </defs>
 <g id="Camada_x0020_1">
  <metadata id="CorelCorpID_0Corel-Layer"/>
  <path class="fil0" d="M186.02 57.01c-0.26,0.72 -0.53,1.44 -0.77,2.16 -2.11,6.28 -7.95,10.53 -14.59,10.54 -10.29,0.02 -20.57,0.01 -30.86,0 -4.54,-0 -7.93,-3.22 -8.03,-7.59 -0.1,-4.38 3.34,-7.92 7.9,-7.96 6.23,-0.06 12.46,-0.01 18.69,-0.01l1.43 0c-0.4,-0.72 -0.67,-1.21 -0.96,-1.69 -12.56,-19.74 -30.23,-31.91 -53.37,-35.8 -38.51,-6.49 -74.85,17.1 -86.29,53.16 -9.93,31.27 1.7,66.57 28.38,85.72 10.19,7.32 21.43,12.15 33.82,13.9 5.53,0.78 11.22,0.9 16.81,0.72 5.39,-0.17 8.34,3.6 8.65,6.74 0.47,4.68 -2.3,8.32 -7.12,8.76 -8.05,0.74 -16.08,0.24 -24.01,-1.33 -35.93,-7.16 -64.09,-33.17 -72.68,-68.67 -8.35,-34.53 0.62,-64.73 25.83,-89.77 13.54,-13.45 30.11,-21.39 48.89,-24.68 2.91,-0.51 5.85,-0.81 8.77,-1.2l12.71 0c0.46,0.12 0.91,0.28 1.37,0.35 3.23,0.42 6.5,0.61 9.69,1.25 24.76,4.93 44.48,17.66 59.09,38.28 0.25,0.35 0.55,0.66 1.06,1.25 0,-1.04 0,-1.7 0,-2.36 0,-5.14 -0.05,-10.28 0.02,-15.42 0.07,-5.2 4.57,-8.78 9.58,-7.68 3.13,0.69 4.85,2.94 5.97,5.76l0 35.58z"/>
  <path class="fil0" d="M186.02 99.49c-0.25,1.84 -0.54,3.68 -0.73,5.53 -0.45,4.53 -3.97,7.51 -8.54,7.2 -4.16,-0.29 -7.28,-3.97 -7.03,-8.35 0.23,-3.79 0.47,-7.59 0.76,-11.37 0.28,-3.64 2.97,-6.64 6.34,-7.18 3.88,-0.62 7.27,1.25 8.75,4.85 0.14,0.33 0.3,0.64 0.45,0.96l0 8.35z"/>
  <path class="fil0" d="M85.41 72.94c0,6.29 0.01,12.59 -0.01,18.88 -0.01,2.9 1.16,5.18 3.59,6.7 8.03,5.05 16.09,10.05 24.15,15.05 1.7,1.05 3.57,1.51 5.55,1.04 3.39,-0.8 5.55,-2.88 6.1,-6.37 0.53,-3.32 -0.75,-5.95 -3.57,-7.72 -6.33,-4 -12.69,-7.96 -19.09,-11.86 -1.06,-0.65 -1.45,-1.34 -1.44,-2.58 0.05,-10.46 0.04,-20.93 0.02,-31.4 -0.01,-4.69 -3.27,-8.16 -7.64,-8.18 -4.35,-0.02 -7.67,3.47 -7.68,8.12 -0.02,6.11 -0.01,12.22 -0.01,18.33zm42.65 -31.04c-5.96,3.69 -9.72,8.72 -11.22,15.39 -2.99,13.26 7.18,26.97 20.72,27.7 5.06,0.27 10.16,0.17 15.24,0.13 1.39,-0.01 1.86,0.43 1.99,1.81 2.71,27.39 -12.95,52.46 -36.92,62.85 -35.69,15.47 -76.29,-4.99 -84.99,-42.39 -5.38,-23.1 0.91,-43.2 17.9,-59.7 9.51,-9.23 21.11,-14.51 34.29,-16.2 15.31,-1.96 29.38,1.41 42.28,9.82 0.19,0.13 0.36,0.29 0.71,0.59z"/>
  <path class="fil0" d="M175.85 133.92c-0.44,1.3 -0.67,2.72 -1.36,3.87 -2.07,3.47 -4.21,6.92 -6.53,10.23 -2.59,3.7 -7.3,4.42 -10.89,1.88 -3.47,-2.45 -4.26,-7.07 -1.86,-10.77 2,-3.09 3.98,-6.19 5.95,-9.31 1.97,-3.11 5.37,-4.48 8.75,-3.5 3.46,1.01 5.7,3.98 5.93,7.6z"/>
  <path class="fil0" d="M146.86 164.6c0.03,2.83 -1.13,5.12 -3.52,6.55 -3.62,2.16 -7.3,4.26 -11.09,6.1 -3.96,1.93 -8.41,0.23 -10.29,-3.62 -1.88,-3.84 -0.36,-8.22 3.54,-10.33 3.23,-1.75 6.45,-3.55 9.66,-5.34 5.32,-2.94 11.66,0.66 11.69,6.65z"/>
 </g>
</svg>
