<?xml version="1.0" encoding="UTF-8"?>
<!DOCTYPE svg PUBLIC "-//W3C//DTD SVG 1.1//EN" "http://www.w3.org/Graphics/SVG/1.1/DTD/svg11.dtd">
<!-- Creator: CorelDRAW -->
<svg xmlns="http://www.w3.org/2000/svg" xml:space="preserve" width="160.28mm" height="66.6667mm" version="1.1" style="shape-rendering:geometricPrecision; text-rendering:geometricPrecision; image-rendering:optimizeQuality; fill-rule:evenodd; clip-rule:evenodd"
viewBox="0 0 1049.95 436.72"
 xmlns:xlink="http://www.w3.org/1999/xlink"
 xmlns:xodm="http://www.corel.com/coreldraw/odm/2003">
 <defs>
  <style type="text/css">
   <![CDATA[
    .str0 {stroke:white;stroke-width:6.93;stroke-miterlimit:10}
    .str1 {stroke:white;stroke-width:2.31;stroke-miterlimit:10}
    .fil1 {fill:none;fill-rule:nonzero}
    .fil0 {fill:#12365C;fill-rule:nonzero}
    .fil2 {fill:white;fill-rule:nonzero}
   ]]>
  </style>
 </defs>
 <g id="Camada_x0020_1">
  <metadata id="CorelCorpID_0Corel-Layer"/>
  <path class="fil0" d="M128.3 375.39c0,33.87 -27.46,61.33 -61.33,61.33 -33.87,0 -61.33,-27.46 -61.33,-61.33 0,-33.87 27.46,-61.33 61.33,-61.33 33.87,0 61.33,27.46 61.33,61.33z"/>
  <path class="fil0" d="M122.02 375.39c0,30.41 -24.65,55.05 -55.05,55.05 -30.41,0 -55.05,-24.65 -55.05,-55.05 0,-30.41 24.65,-55.05 55.05,-55.05 30.4,0 55.05,24.65 55.05,55.05z"/>
  <path class="fil1 str0" d="M122.02 375.39c0,30.41 -24.65,55.05 -55.05,55.05 -30.41,0 -55.05,-24.65 -55.05,-55.05 0,-30.41 24.65,-55.05 55.05,-55.05 30.4,0 55.05,24.65 55.05,55.05z"/>
  <path class="fil2" d="M69 392.67l0 -11.94c2.47,0.79 4.4,1.66 5.79,2.6 1.38,0.94 2.08,2.25 2.08,3.93 0,3.46 -2.62,5.27 -7.86,5.41zm-3.11 -23.36c-2.37,-0.69 -4.14,-1.47 -5.3,-2.34 -1.16,-0.86 -1.74,-2.14 -1.74,-3.82 0,-3.61 2.35,-5.56 7.05,-5.86l0 12.02zm20.69 10.79c-0.79,-1.66 -1.92,-3.08 -3.38,-4.27 -1.46,-1.19 -3.24,-2.17 -5.34,-2.97 -2.1,-0.79 -4.44,-1.53 -7.01,-2.23l-1.85 -0.44 0 -12.83c1.43,0.15 2.82,0.43 4.15,0.85 1.34,0.42 2.56,0.89 3.67,1.41 1.11,0.52 2.08,1.03 2.89,1.52 0.82,0.49 1.37,0.92 1.67,1.26l4.52 -8.31c-2.08,-1.43 -4.49,-2.69 -7.23,-3.78 -2.74,-1.09 -5.75,-1.75 -9.01,-2l0 -7.49 -4.45 0 0 7.57c-2.37,0.2 -4.6,0.69 -6.68,1.48 -2.07,0.79 -3.87,1.88 -5.37,3.26 -1.51,1.38 -2.7,3.05 -3.56,5.01 -0.86,1.96 -1.3,4.17 -1.3,6.64 0,2.03 0.31,3.77 0.93,5.23 0.62,1.46 1.55,2.74 2.78,3.86 1.24,1.11 2.78,2.08 4.64,2.89 1.85,0.82 4.04,1.57 6.56,2.26 0.45,0.15 0.89,0.29 1.34,0.41 0.45,0.12 0.89,0.24 1.34,0.33l0 12.76c-1.78,-0.2 -3.5,-0.57 -5.16,-1.11 -1.66,-0.54 -3.16,-1.12 -4.52,-1.74 -1.36,-0.62 -2.52,-1.25 -3.49,-1.89 -0.96,-0.64 -1.65,-1.16 -2.04,-1.56l-4.52 8.83c2.67,1.88 5.65,3.4 8.94,4.56 3.29,1.16 6.66,1.86 10.12,2.11l0 8.23 4.45 0 0 -8.16c2.42,-0.1 4.73,-0.46 6.94,-1.07 2.2,-0.62 4.13,-1.55 5.78,-2.78 1.66,-1.23 2.97,-2.82 3.93,-4.74 0.97,-1.93 1.45,-4.25 1.45,-6.97 0,-2.42 -0.4,-4.46 -1.19,-6.12z"/>
  <polygon class="fil0 str1" points="233.45,80.88 256.69,80.88 256.69,67.02 233.45,67.02 "/>
  <polygon class="fil0 str1" points="191.78,80.88 215.01,80.88 215.01,67.02 191.78,67.02 "/>
  <polygon class="fil0 str1" points="150.24,80.88 173.48,80.88 173.48,67.02 150.24,67.02 "/>
  <polygon class="fil0 str1" points="274.99,80.88 298.22,80.88 298.22,67.02 274.99,67.02 "/>
  <polygon class="fil0 str1" points="233.45,80.88 256.69,80.88 256.69,67.02 233.45,67.02 "/>
  <polygon class="fil0 str1" points="532.59,80.88 555.82,80.88 555.82,67.02 532.59,67.02 "/>
  <polygon class="fil0 str1" points="490.91,80.88 514.15,80.88 514.15,67.02 490.91,67.02 "/>
  <polygon class="fil0 str1" points="449.37,80.88 472.61,80.88 472.61,67.02 449.37,67.02 "/>
  <polygon class="fil0 str1" points="574.12,80.88 597.36,80.88 597.36,67.02 574.12,67.02 "/>
  <polygon class="fil0 str1" points="532.59,80.88 555.82,80.88 555.82,67.02 532.59,67.02 "/>
  <polygon class="fil0 str1" points="836.9,80.88 860.13,80.88 860.13,67.02 836.9,67.02 "/>
  <polygon class="fil0 str1" points="795.22,80.88 818.46,80.88 818.46,67.02 795.22,67.02 "/>
  <polygon class="fil0 str1" points="753.68,80.88 776.92,80.88 776.92,67.02 753.68,67.02 "/>
  <polygon class="fil0 str1" points="878.43,80.88 901.67,80.88 901.67,67.02 878.43,67.02 "/>
  <polygon class="fil0 str1" points="836.9,80.88 860.13,80.88 860.13,67.02 836.9,67.02 "/>
  <polygon class="fil0" points="73.9,277.5 60.03,277.5 60.03,300.74 73.9,300.74 "/>
  <polygon class="fil1 str1" points="73.9,277.5 60.03,277.5 60.03,300.74 73.9,300.74 "/>
  <polygon class="fil0 str1" points="73.89,235.96 60.03,235.96 60.03,259.2 73.89,259.2 "/>
  <polygon class="fil0" points="66.97,85.65 50.71,81.97 50.71,100.82 66.97,104.51 "/>
  <path class="fil0" d="M115.73 93.67l-15.6 8.24 0 -19.5 15.6 -8.57 0 19.84zm-35.76 28.17l-40.52 -9.32 0 -33.37 -17.34 -4.77 0 33.81 -12.14 -3.03 0 -42.26 36.62 -31.64 33.37 47.68 0 42.91zm8.45 -116.16l-43.45 13 -44.97 41.61 0 2.6 5.63 1.95 0 43.99 78.02 19.5 44.43 -23.62 0 -39.88 5.85 -2.17 0 -3.47 -45.51 -53.53z"/>
  <polygon class="fil0" points="373.19,0 308.12,24.93 308.12,34.41 373.19,34.41 438.27,34.41 438.27,24.93 "/>
  <polygon class="fil0" points="373.19,36.37 314.6,36.37 314.6,41.61 373.19,41.61 431.78,41.61 431.78,36.37 "/>
  <polygon class="fil0" points="373.19,104.34 314.6,104.34 314.6,109.58 373.19,109.58 431.78,109.58 431.78,104.34 "/>
  <polygon class="fil0" points="373.19,111.01 308.12,111.01 308.12,122.48 373.19,122.48 438.27,122.48 438.27,111.01 "/>
  <polygon class="fil0" points="336.81,71.31 336.81,47.63 338.39,46.05 341.11,46.05 341.11,43.13 331.68,43.13 322.25,43.13 322.25,46.05 324.97,46.05 326.55,47.63 326.55,71.31 326.55,71.87 326.55,98.32 324.97,99.9 322.25,99.9 322.25,102.81 331.68,102.81 341.11,102.81 341.11,99.9 338.39,99.9 336.81,98.32 336.81,71.87 "/>
  <polygon class="fil0" points="364.48,71.31 364.48,47.63 366.06,46.05 368.78,46.05 368.78,43.13 359.35,43.13 349.92,43.13 349.92,46.05 352.64,46.05 354.23,47.63 354.23,71.31 354.23,71.87 354.23,98.32 352.64,99.9 349.92,99.9 349.92,102.81 359.35,102.81 368.78,102.81 368.78,99.9 366.06,99.9 364.48,98.32 364.48,71.87 "/>
  <polygon class="fil0" points="392.16,71.31 392.16,47.63 393.74,46.05 396.46,46.05 396.46,43.13 387.03,43.13 377.6,43.13 377.6,46.05 380.32,46.05 381.9,47.63 381.9,71.31 381.9,71.87 381.9,98.32 380.32,99.9 377.6,99.9 377.6,102.81 387.03,102.81 396.46,102.81 396.46,99.9 393.74,99.9 392.16,98.32 392.16,71.87 "/>
  <polygon class="fil0" points="419.83,71.31 419.83,47.63 421.41,46.05 424.13,46.05 424.13,43.13 414.7,43.13 405.27,43.13 405.27,46.05 407.99,46.05 409.58,47.63 409.58,71.31 409.58,71.87 409.58,98.32 407.99,99.9 405.27,99.9 405.27,102.81 414.7,102.81 424.13,102.81 424.13,99.9 421.41,99.9 419.83,98.32 419.83,71.87 "/>
  <path class="fil2" d="M373.77 23.38l0 -3.39c0.7,0.23 1.25,0.47 1.64,0.74 0.39,0.27 0.59,0.64 0.59,1.12 0,0.98 -0.74,1.5 -2.23,1.54zm-0.89 -6.64c-0.67,-0.2 -1.18,-0.42 -1.51,-0.67 -0.33,-0.24 -0.49,-0.61 -0.49,-1.08 0,-1.03 0.67,-1.58 2,-1.66l0 3.41zm5.88 3.06c-0.22,-0.47 -0.54,-0.87 -0.96,-1.21 -0.42,-0.34 -0.92,-0.62 -1.52,-0.84 -0.6,-0.22 -1.26,-0.43 -1.99,-0.63l-0.53 -0.13 0 -3.64c0.41,0.04 0.8,0.12 1.18,0.24 0.38,0.12 0.73,0.25 1.04,0.4 0.31,0.15 0.59,0.29 0.82,0.43 0.23,0.14 0.39,0.26 0.47,0.36l1.29 -2.36c-0.59,-0.41 -1.27,-0.77 -2.05,-1.07 -0.78,-0.31 -1.63,-0.5 -2.56,-0.57l0 -2.13 -1.26 0 0 2.15c-0.67,0.06 -1.31,0.2 -1.9,0.42 -0.59,0.23 -1.1,0.53 -1.53,0.93 -0.43,0.4 -0.77,0.87 -1.01,1.42 -0.24,0.55 -0.37,1.18 -0.37,1.89 0,0.58 0.09,1.07 0.26,1.48 0.18,0.41 0.44,0.78 0.79,1.1 0.35,0.32 0.79,0.59 1.31,0.82 0.53,0.23 1.15,0.45 1.86,0.64 0.13,0.04 0.25,0.08 0.38,0.12 0.13,0.03 0.25,0.07 0.38,0.09l0 3.62c-0.51,-0.06 -0.99,-0.16 -1.46,-0.32 -0.47,-0.16 -0.9,-0.32 -1.28,-0.49 -0.39,-0.18 -0.72,-0.36 -0.99,-0.54 -0.27,-0.18 -0.47,-0.33 -0.58,-0.44l-1.29 2.51c0.76,0.53 1.61,0.97 2.54,1.29 0.93,0.33 1.89,0.53 2.88,0.6l0 2.34 1.26 0 0 -2.32c0.69,-0.03 1.35,-0.13 1.97,-0.3 0.63,-0.18 1.17,-0.44 1.64,-0.79 0.47,-0.35 0.84,-0.8 1.12,-1.35 0.28,-0.55 0.41,-1.21 0.41,-1.98 0,-0.69 -0.11,-1.27 -0.34,-1.74z"/>
  <path class="fil0" d="M725.72 51.48c-0.15,0.42 -0.31,0.84 -0.45,1.27 -1.24,3.68 -4.66,6.17 -8.56,6.18 -6.03,0.01 -12.07,0.01 -18.1,0 -2.66,-0 -4.65,-1.89 -4.71,-4.45 -0.06,-2.57 1.96,-4.65 4.63,-4.67 3.66,-0.03 7.31,-0.01 10.97,-0.01 0.21,0 0.42,0 0.84,0 -0.24,-0.42 -0.39,-0.71 -0.56,-0.99 -7.37,-11.58 -17.73,-18.71 -31.3,-21 -22.59,-3.81 -43.9,10.03 -50.61,31.18 -5.82,18.34 1,39.05 16.64,50.28 5.98,4.29 12.57,7.12 19.84,8.15 3.25,0.46 6.58,0.53 9.86,0.42 3.16,-0.1 4.89,2.11 5.07,3.96 0.27,2.75 -1.35,4.88 -4.18,5.14 -4.72,0.43 -9.43,0.14 -14.08,-0.78 -21.07,-4.2 -37.59,-19.45 -42.63,-40.28 -4.9,-20.25 0.37,-37.96 15.16,-52.66 7.94,-7.89 17.66,-12.54 28.67,-14.47 1.71,-0.3 3.43,-0.47 5.15,-0.7l7.46 0c0.27,0.07 0.53,0.17 0.8,0.2 1.9,0.24 3.81,0.36 5.68,0.73 14.52,2.89 26.09,10.36 34.66,22.45 0.14,0.21 0.32,0.39 0.62,0.73l0 -1.38c0,-3.01 -0.03,-6.03 0.01,-9.04 0.04,-3.05 2.68,-5.15 5.62,-4.5 1.83,0.4 2.84,1.72 3.5,3.38l0 20.87z"/>
  <path class="fil0" d="M725.72 76.4c-0.14,1.08 -0.32,2.16 -0.43,3.24 -0.27,2.66 -2.33,4.41 -5.01,4.23 -2.44,-0.17 -4.27,-2.33 -4.12,-4.9 0.13,-2.22 0.27,-4.45 0.45,-6.67 0.17,-2.14 1.74,-3.9 3.72,-4.21 2.28,-0.37 4.26,0.74 5.13,2.84 0.08,0.19 0.18,0.37 0.26,0.56l0 4.9z"/>
  <path class="fil0" d="M666.71 60.83c0,3.69 0.01,7.38 -0,11.07 -0,1.7 0.68,3.03 2.11,3.93 4.71,2.96 9.44,5.9 14.16,8.83 1,0.62 2.1,0.88 3.26,0.61 1.99,-0.47 3.25,-1.69 3.58,-3.74 0.31,-1.95 -0.44,-3.49 -2.09,-4.53 -3.72,-2.35 -7.45,-4.67 -11.2,-6.96 -0.62,-0.38 -0.85,-0.79 -0.84,-1.51 0.03,-6.14 0.02,-12.28 0.01,-18.42 -0,-2.75 -1.92,-4.79 -4.48,-4.8 -2.55,-0.01 -4.5,2.04 -4.51,4.77 -0.01,3.58 -0,7.17 -0,10.75zm25.01 -18.2c-3.5,2.16 -5.7,5.11 -6.58,9.02 -1.75,7.78 4.21,15.81 12.15,16.25 2.97,0.16 5.96,0.1 8.94,0.08 0.82,-0.01 1.09,0.25 1.17,1.06 1.59,16.07 -7.6,30.77 -21.65,36.87 -20.93,9.08 -44.75,-2.93 -49.85,-24.86 -3.15,-13.55 0.53,-25.34 10.5,-35.02 5.58,-5.41 12.38,-8.51 20.11,-9.5 8.98,-1.15 17.23,0.82 24.8,5.76 0.11,0.07 0.21,0.17 0.42,0.34z"/>
  <path class="fil0" d="M719.75 96.59c-0.26,0.76 -0.39,1.59 -0.79,2.27 -1.22,2.04 -2.47,4.06 -3.83,6 -1.52,2.17 -4.28,2.59 -6.39,1.1 -2.03,-1.44 -2.5,-4.15 -1.09,-6.32 1.17,-1.81 2.33,-3.64 3.49,-5.46 1.16,-1.82 3.15,-2.63 5.13,-2.05 2.03,0.59 3.34,2.33 3.48,4.46z"/>
  <path class="fil0" d="M702.75 114.59c0.02,1.66 -0.66,3 -2.06,3.84 -2.13,1.27 -4.28,2.5 -6.51,3.58 -2.32,1.13 -4.93,0.13 -6.04,-2.13 -1.1,-2.25 -0.21,-4.82 2.08,-6.06 1.9,-1.03 3.78,-2.08 5.67,-3.13 3.12,-1.73 6.84,0.38 6.86,3.9z"/>
  <path class="fil0" d="M1045.62 100.64l-44.61 0c19.65,-12.94 19.72,-42.29 0.01,-55.31l44.6 0 0 55.31zm-80.94 -12.17c-2.95,-4.76 -4.38,-9.95 -4.35,-17.49 0.27,-7.97 4.03,-16.14 12.39,-21.74 9.96,-6.67 22.79,-4.95 31.16,3.98 10.9,11.61 10.03,30.75 -1.87,41.32 -11.54,10.25 -28.95,7.43 -37.33,-6.07zm79.88 -47.55c-28.39,0.05 -56.79,0.03 -85.18,0.03 -0.38,0 -0.75,-0.01 -1.13,0.01 -1.32,0.07 -2.17,0.89 -2.19,2.09 -0.02,1.25 0.85,2.14 2.23,2.15 3.71,0.03 7.42,0.01 11.13,0.01 0.4,0 0.8,0 1.5,0 -9.75,6.93 -14.88,16.05 -14.87,27.78 0.01,11.72 5.15,20.83 14.77,27.67l-44.61 0 0 -55.46c1.75,0 3.41,0 5.08,0 5.34,-0 10.67,0.01 16.01,-0.01 1.36,-0.01 2.31,-0.91 2.31,-2.11 0,-1.19 -0.94,-2.08 -2.29,-2.14 -0.17,-0.01 -0.34,-0 -0.5,-0 -6.71,0 -13.42,-0 -20.14,0 -3.12,0 -4.82,1.68 -4.82,4.77 -0,18.18 -0,36.36 0,54.54 0,0.5 0.02,1.01 0.14,1.49 0.54,2.15 2.19,3.25 4.84,3.25 39.23,0 78.47,-0.02 117.7,0.03 2.61,0 4.41,-0.86 5.4,-3.28l0 -57.54c-0.99,-2.43 -2.79,-3.29 -5.4,-3.29z"/>
  <path class="fil0" d="M987.13 36.96c12.03,-4.02 24.05,-8.05 36.08,-12.08 3.07,-1.03 6.14,-2.05 9.32,-3.12 0.19,0.55 0.31,0.9 0.43,1.25 1.33,3.94 2.65,7.88 3.98,11.82 0.12,0.35 0.22,0.72 0.37,1.06 0.5,1.11 1.59,1.61 2.67,1.25 1.1,-0.37 1.7,-1.52 1.3,-2.73 -1.48,-4.5 -3,-8.99 -4.52,-13.49 -1.02,-3.03 -3.09,-4.05 -6.14,-3.04 -7.3,2.44 -14.59,4.89 -21.89,7.33 -7.69,2.58 -15.38,5.15 -23.06,7.73 -1.74,0.59 -2.41,2.04 -1.56,3.34 0.62,0.95 1.53,1.17 3.01,0.67z"/>
  <path class="fil0" d="M984.82 108.95c-12.07,4.06 -24.14,8.1 -36.22,12.14 -3.07,1.03 -6.14,2.05 -9.28,3.1 -0.18,-0.5 -0.33,-0.88 -0.46,-1.26 -1.4,-4.14 -2.8,-8.28 -4.18,-12.42 -0.31,-0.94 -0.82,-1.64 -1.87,-1.77 -1.67,-0.2 -2.78,1.23 -2.22,2.95 1.41,4.31 2.86,8.61 4.3,12.91 1.2,3.59 3.12,4.55 6.7,3.35 7.69,-2.58 15.39,-5.15 23.08,-7.73 7.1,-2.38 14.21,-4.75 21.29,-7.19 0.72,-0.25 1.56,-0.81 1.84,-1.45 0.25,-0.57 0,-1.57 -0.38,-2.15 -0.6,-0.91 -1.61,-0.8 -2.6,-0.47z"/>
  <path class="fil0" d="M940.61 53.74c1.66,-0.01 2.54,-0.73 2.56,-2.07 0.03,-1.38 -0.9,-2.18 -2.6,-2.19 -2.5,-0.01 -5,-0.01 -7.5,0 -1.9,0.01 -2.67,0.77 -2.68,2.64 -0.01,2.5 -0.01,5 -0,7.5 0.01,1.71 0.78,2.64 2.15,2.64 1.37,-0 2.1,-0.91 2.11,-2.65 0.01,-1.91 0,-3.81 0,-5.87 2.13,0 4.04,0.01 5.96,-0z"/>
  <path class="fil0" d="M932.86 96.47c2.62,0.03 5.25,0.02 7.87,0 1.51,-0.01 2.41,-0.82 2.44,-2.1 0.03,-1.34 -0.88,-2.14 -2.47,-2.16 -1.95,-0.01 -3.91,-0 -6.05,-0 0,-2.13 0.01,-4.08 -0,-6.03 -0.01,-1.6 -0.81,-2.51 -2.15,-2.49 -1.28,0.02 -2.1,0.92 -2.11,2.43 -0.02,2.62 -0.02,5.25 0,7.87 0.02,1.66 0.82,2.47 2.47,2.48z"/>
  <path class="fil2" d="M1031.07 49.49c2.62,-0.02 5.25,-0.02 7.87,0 1.66,0.02 2.46,0.82 2.48,2.47 0.03,2.62 0.02,5.25 0,7.87 -0.01,1.51 -0.82,2.41 -2.1,2.44 -1.34,0.02 -2.14,-0.88 -2.16,-2.48 -0.01,-1.95 -0,-3.9 -0,-6.05 -2.13,0 -4.09,0.01 -6.04,-0 -1.6,-0.01 -2.5,-0.81 -2.48,-2.15 0.02,-1.28 0.92,-2.09 2.43,-2.11zm10.35 44.5c-0.02,1.65 -0.82,2.46 -2.47,2.48 -2.62,0.03 -5.25,0.02 -7.87,0 -1.51,-0.01 -2.41,-0.82 -2.44,-2.1 -0.02,-1.34 0.88,-2.14 2.48,-2.15 1.95,-0.02 3.9,-0 6.05,-0 0,-2.13 -0.01,-4.09 0,-6.04 0.01,-1.6 0.81,-2.51 2.15,-2.49 1.28,0.02 2.09,0.92 2.11,2.43 0.02,2.62 0.03,5.25 0,7.87zm-40.42 6.65l44.61 0 0 -55.31 -44.6 0c19.71,13.02 19.64,42.37 -0.01,55.31z"/>
  <path class="fil0" d="M1031.13 53.74c1.95,0.01 3.9,0 6.04,0 0,2.14 -0.01,4.09 0,6.04 0.01,1.59 0.81,2.5 2.16,2.48 1.28,-0.02 2.08,-0.93 2.1,-2.44 0.02,-2.63 0.02,-5.25 -0,-7.87 -0.02,-1.65 -0.82,-2.45 -2.48,-2.47 -2.62,-0.02 -5.25,-0.02 -7.87,0 -1.51,0.01 -2.41,0.83 -2.43,2.11 -0.02,1.34 0.89,2.14 2.49,2.15z"/>
  <path class="fil0" d="M1039.32 83.69c-1.34,-0.02 -2.14,0.89 -2.15,2.49 -0.01,1.95 -0,3.9 -0,6.04 -2.14,0 -4.09,-0.01 -6.05,0 -1.59,0.01 -2.5,0.81 -2.48,2.15 0.02,1.28 0.92,2.09 2.44,2.1 2.63,0.02 5.25,0.03 7.87,0 1.65,-0.02 2.45,-0.82 2.47,-2.48 0.03,-2.62 0.02,-5.25 0,-7.87 -0.01,-1.5 -0.83,-2.41 -2.11,-2.43z"/>
  <path class="fil2" d="M979.53 65.44c-0.05,2.18 1.66,4.28 4.23,4.99l0 -4.96 0 -4.83c-2.39,0.47 -4.19,2.59 -4.23,4.8z"/>
  <path class="fil2" d="M988.11 75.65l0 9.66c2.46,-0.54 4.32,-2.88 4.17,-5.07 -0.16,-2.28 -2.04,-4.37 -4.17,-4.59z"/>
  <path class="fil0" d="M987.12 82.92l0 -7.07c1.46,0.47 2.6,0.98 3.42,1.54 0.82,0.56 1.23,1.33 1.23,2.33 0,2.05 -1.55,3.12 -4.65,3.21zm-1.84 -13.83c-1.41,-0.41 -2.45,-0.87 -3.14,-1.38 -0.69,-0.51 -1.03,-1.27 -1.03,-2.26 0,-2.14 1.39,-3.3 4.17,-3.47l0 7.11zm12.25 6.39c-0.47,-0.98 -1.13,-1.82 -2,-2.52 -0.86,-0.7 -1.92,-1.29 -3.16,-1.76 -1.24,-0.47 -2.63,-0.91 -4.15,-1.32l-1.1 -0.26 0 -7.6c0.85,0.09 1.67,0.26 2.46,0.51 0.79,0.25 1.51,0.53 2.17,0.83 0.66,0.31 1.23,0.61 1.71,0.9 0.48,0.29 0.81,0.54 0.99,0.75l2.68 -4.92c-1.23,-0.85 -2.66,-1.59 -4.28,-2.24 -1.62,-0.64 -3.4,-1.04 -5.33,-1.19l0 -4.43 -2.63 0 0 4.48c-1.41,0.12 -2.72,0.41 -3.95,0.88 -1.23,0.47 -2.29,1.11 -3.18,1.93 -0.89,0.82 -1.6,1.81 -2.11,2.96 -0.51,1.16 -0.77,2.47 -0.77,3.93 0,1.2 0.18,2.23 0.55,3.09 0.36,0.86 0.92,1.62 1.65,2.28 0.73,0.66 1.65,1.23 2.74,1.71 1.1,0.48 2.39,0.93 3.89,1.34 0.26,0.09 0.53,0.17 0.79,0.24 0.26,0.07 0.53,0.14 0.79,0.2l0 7.55c-1.05,-0.12 -2.07,-0.33 -3.05,-0.66 -0.98,-0.32 -1.87,-0.67 -2.68,-1.03 -0.8,-0.36 -1.49,-0.74 -2.06,-1.12 -0.57,-0.38 -0.97,-0.69 -1.21,-0.92l-2.68 5.22c1.58,1.11 3.34,2.01 5.29,2.7 1.95,0.69 3.94,1.11 5.99,1.25l0 4.87 2.63 0 0 -4.83c1.43,-0.06 2.8,-0.27 4.11,-0.64 1.3,-0.36 2.44,-0.91 3.42,-1.65 0.98,-0.73 1.76,-1.67 2.33,-2.81 0.57,-1.14 0.85,-2.52 0.85,-4.13 0,-1.44 -0.23,-2.64 -0.7,-3.62z"/>
 </g>
</svg>
